<svg width="156" height="145" viewBox="0 0 156 145" fill="none" xmlns="http://www.w3.org/2000/svg">
<mask id="mask0" mask-type="alpha" maskUnits="userSpaceOnUse" x="8" y="0" width="139" height="140">
<path d="M91.4588 34.2142C91.4588 34.7595 91.7512 34.7867 92.9208 30.5334C94.3828 25.2168 96.6803 23.5809 98.1423 23.9898C99.3118 24.317 97.9334 26.58 97.098 27.6706C97.2651 27.9978 96.6106 30.2608 96.2625 31.3514L95.8448 34.2142V36.259C95.4967 37.2815 94.8005 39.4081 94.8005 39.7353C94.8005 40.0625 94.1044 42.5981 93.7563 43.825C93.7563 46.7697 93.1993 50.5049 92.9208 52.0045C92.712 54.1857 92.2943 58.6708 92.2943 59.1615C92.2943 59.775 92.2943 71.0218 92.2943 71.6352C92.2943 72.2487 92.712 74.0891 92.712 74.7025C92.712 75.1933 92.4335 77.0882 92.2943 77.9743V91.4704H77.2566L78.092 85.5403L78.9274 78.1788L78.092 72.4532C78.1616 71.7034 77.5072 69.7948 74.3326 68.1589C71.158 66.5231 69.2504 62.9786 68.6934 61.4109L67.4403 59.5705L56.9975 48.3237M91.4588 34.2142L90.4146 28.693V24.8078C90.0665 23.0356 89.5791 18.7959 90.4146 16.0149C91.25 13.2338 90.4842 12.8112 89.9968 12.9476C88.326 12.8112 85.1514 14.379 85.8197 21.7405L85.402 27.8751M91.4588 34.2142L92.0854 40.3488M85.402 27.8751C83.94 25.0123 81.0578 19.1231 81.2249 18.4687C81.3919 17.8143 80.5983 15.7422 80.1806 14.7879C80.1806 12.8794 79.8046 9.38948 78.3009 10.6982C76.4211 12.3341 75.5857 14.9924 77.2566 19.9001C77.3958 21.6723 77.8831 25.5439 78.7186 26.8526C78.7186 27.3979 79.0945 29.9199 80.5983 35.6456M85.402 27.8751L88.9526 36.668M80.5983 35.6456C79.4148 34.7595 76.7553 32.8645 75.5857 32.3738C75.2376 31.6921 73.8731 30.5743 71.1997 31.5558C67.858 32.7827 64.0986 33.3962 63.472 34.0097C62.9708 34.5004 59.7822 37.7586 58.2506 39.3263M80.5983 35.6456L85.8197 39.7353M58.2506 39.3263C57.2759 38.9173 55.7443 39.3263 57.4152 44.234L56.9975 48.3237M58.2506 39.3263C59.1557 39.6671 61.0075 40.5123 61.1746 41.1667M56.9975 48.3237C57.4848 48.1192 58.543 47.4649 58.8772 46.4834M61.1746 41.1667C61.4531 41.5075 62.0518 42.3936 62.2189 43.2116M61.1746 41.1667C63.6809 40.5123 65.8391 38.7129 66.6049 37.8949M62.2189 43.2116C62.6366 43.6887 63.472 44.8884 63.472 45.8699M62.2189 43.2116C61.2164 43.3752 61.105 43.2797 61.1746 43.2116M63.472 45.8699C64.4467 46.4152 66.6049 47.8739 67.4403 49.3462C68.4846 51.1865 75.168 48.7327 76.8389 46.2789C76.9085 45.8699 77.2148 45.0928 77.8831 45.2564C77.4654 44.7111 76.9224 43.4161 78.092 42.5981C77.3958 42.5981 76.1705 42.1482 76.8389 40.3488C75.7946 40.6214 73.3301 40.3488 71.8263 37.077M63.472 45.8699L62.4277 46.4834M71.8263 37.077C71.4782 37.6223 69.9466 38.5493 66.6049 37.8949M71.8263 37.077L72.0352 34.4186M66.6049 37.8949C66.0479 37.1451 64.9758 35.5229 65.1429 35.0321" stroke="black" stroke-width="2" stroke-linecap="round" stroke-linejoin="round"/>
<path d="M127.318 50.9412C127.318 77.9706 105.073 99.8824 77.6326 99.8824C50.1924 99.8824 27.9478 77.9706 27.9478 50.9412C27.9478 23.9117 50.1924 2 77.6326 2C105.073 2 127.318 23.9117 127.318 50.9412Z" stroke="black" stroke-width="4" stroke-miterlimit="16" stroke-linecap="round" stroke-dasharray="0.2 6 4 6 0.2 6 0.2 14"/>
</mask>
<g mask="url(#mask0)">
<rect y="-7.94141" width="155.265" height="152.941" fill="url(#paint0_linear)"/>
</g>
<defs>
<linearGradient id="paint0_linear" x1="34.9347" y1="97.9704" x2="192.35" y2="-21.6901" gradientUnits="userSpaceOnUse">
<stop class="start" stop-color="#000"/>
<stop class="stop" offset="1" stop-color="#000"/>
</linearGradient>
</defs>
</svg>
